# xmcd
#
# Track frame offsets:
#	150
#	37491
#	68799
#	104297
#	137414
#	175559
#	214763
#	251276
#
# Disc length: 3908 seconds
#
# Revision: 1
# Processed by: cddbd v1.5.2PL0 Copyright (c) Steve Scherf et al.
# Submitted via: EZCDAudioConverter 8.0.2.1
#
DISCID=6b0f4208
DTITLE=Various Artist - Tân Cổ Đặc Biệt 2. Cánh Cò Quê Hương
DYEAR=2007
DGENRE=Country
TTITLE0=Hương Thủy, Mạnh Quỳnh - Kiếp tình chung
TTITLE1=Hương Lan, Duy Trường - Con cò trắng
TTITLE2=Phi Nhung, Mạnh Quỳnh - Lối thu xưa
TTITLE3=Hương Thủy, Mạnh Quỳnh - Phải em lý ngựa ô
TTITLE4=Hương Lan, Duy Trường - Thương em
TTITLE5=Hương Lan, Hà My - Quê em mùa nước lũ
TTITLE6=Mạnh Quỳnh, Tâm Đoan - Mong em còn ngày mai
TTITLE7=Hương Lan - Mẹ dạy con
EXTD=
EXTT0=
EXTT1=
EXTT2=
EXTT3=
EXTT4=
EXTT5=
EXTT6=
EXTT7=
PLAYORDER=
